<svg id="Layer_1" data-name="Layer 1" xmlns="http://www.w3.org/2000/svg" viewBox="0 0 1000 935.59"><defs><style>.cls-1{fill:#fff;}</style></defs><path class="cls-1" d="M48.37.37C18.51.37,3,18.06,3,49V149.65c0,31,15.48,48.66,45.34,48.66s45.34-17.69,45.34-48.66V123.94H65v27.65c0,13.82-6.07,18.8-15.75,18.8s-15.76-5-15.76-18.8V47.09C33.44,33.27,39.52,28,49.2,28S65,33.27,65,47.09V67.82H93.71V49C93.71,18.06,78.22.37,48.37.37Z"/><polygon class="cls-1" points="289.18 139.98 266.79 2.58 224.49 2.58 224.49 196.1 251.03 196.1 251.03 59.25 273.69 196.1 302.45 196.1 323.46 57.32 323.46 196.1 352.21 196.1 352.21 2.58 309.91 2.58 289.18 139.98"/><path class="cls-1" d="M418.29,198.59c29.85,0,45.34-17.7,45.34-48.66V2.58H434.88V151.87c0,13.82-6.09,18.8-15.76,18.8s-15.76-5-15.76-18.8V2.58H373V149.93C373,180.89,388.43,198.59,418.29,198.59Z"/><polygon class="cls-1" points="580.58 196.1 580.58 2.58 553.49 2.58 553.49 118.41 522.24 2.58 484.1 2.58 484.1 196.1 511.46 196.1 511.46 55.94 549.34 196.1 580.58 196.1"/><path class="cls-1" d="M48.37,244.86C18.51,244.86,3,262.55,3,293.51V394.14c0,31,15.48,48.66,45.34,48.66s45.34-17.69,45.34-48.66V368.43H65v27.65c0,13.82-6.07,18.8-15.75,18.8s-15.76-5-15.76-18.8V291.58c0-13.82,6.08-19.08,15.76-19.08S65,277.76,65,291.58v20.73H93.71v-18.8C93.71,262.55,78.22,244.86,48.37,244.86Z"/><polygon class="cls-1" points="286.13 384.47 263.74 247.07 221.45 247.07 221.45 440.59 247.98 440.59 247.98 303.74 270.65 440.59 299.41 440.59 320.42 301.81 320.42 440.59 349.17 440.59 349.17 247.07 306.87 247.07 286.13 384.47"/><polygon class="cls-1" points="435.71 384.47 413.31 247.07 371.02 247.07 371.02 440.59 397.56 440.59 397.56 303.74 420.22 440.59 448.98 440.59 469.99 301.81 469.99 440.59 498.74 440.59 498.74 247.07 456.44 247.07 435.71 384.47"/><path class="cls-1" d="M565.65,415.16c-9.67,0-15.76-5-15.76-18.8V247.07H519.48V394.42c0,31,15.49,48.66,45.34,48.66s45.34-17.7,45.34-48.66V247.07H581.41V396.36C581.41,410.18,575.33,415.16,565.65,415.16Z"/><polygon class="cls-1" points="700.01 362.9 668.77 247.07 630.63 247.07 630.63 440.59 657.99 440.59 657.99 300.43 695.87 440.59 727.1 440.59 727.1 247.07 700.01 247.07 700.01 362.9"/><rect class="cls-1" x="748.96" y="247.07" width="30.41" height="193.52"/><polygon class="cls-1" points="792.64 274.71 824.43 274.71 824.43 440.59 854.84 440.59 854.84 274.71 886.63 274.71 886.63 247.07 792.64 247.07 792.64 274.71"/><polygon class="cls-1" points="928.38 440.59 958.79 440.59 958.79 376.45 997.22 247.07 968.19 247.07 944.97 335.26 921.75 247.07 889.95 247.07 928.38 376.45 928.38 440.59"/><path class="cls-1" d="M32.06,536.07c0-13.82,5.53-19.08,15.2-19.08s15.21,5.26,15.21,19.08v8H91.22V538c0-31-15.2-48.65-44.79-48.65S1.65,507,1.65,538c0,55.29,59.43,62.76,59.43,102.57,0,13.82-6.07,18.8-15.75,18.8s-15.76-5-15.76-18.8V626.75H.82v11.88c0,31,15.48,48.66,45.34,48.66S91.5,669.6,91.5,638.63C91.5,583.34,32.06,575.88,32.06,536.07Z"/><path class="cls-1" d="M169.47,640.85c0,13.82-6.09,18.8-15.76,18.8s-15.76-5-15.76-18.8V491.56H107.54V638.91c0,31,15.48,48.66,45.34,48.66s45.34-17.7,45.34-48.66V491.56H169.47Z"/><polygon class="cls-1" points="283.37 628.96 260.98 491.56 218.69 491.56 218.69 685.08 245.22 685.08 245.22 548.23 267.89 685.08 296.64 685.08 317.66 546.3 317.66 685.08 346.41 685.08 346.41 491.56 304.11 491.56 283.37 628.96"/><polygon class="cls-1" points="432.94 628.96 410.55 491.56 368.25 491.56 368.25 685.08 394.79 685.08 394.79 548.23 417.46 685.08 446.21 685.08 467.22 546.3 467.22 685.08 495.98 685.08 495.98 491.56 453.67 491.56 432.94 628.96"/><rect class="cls-1" x="518.1" y="491.56" width="30.41" height="193.52"/><polygon class="cls-1" points="561.78 519.21 593.57 519.21 593.57 685.08 623.99 685.08 623.99 519.21 655.77 519.21 655.77 491.56 561.78 491.56 561.78 519.21"/><path class="cls-1" d="M135.18,2.58l-31,193.52h27.93L137.39,161h37.32L180,196.1h30.68l-31-193.52Zm6.08,132.14,14.65-97.86,14.66,97.86Z"/><path class="cls-1" d="M695.87,148.27V50.41c0-31-14.93-47.83-45.34-47.83h-48.1V196.1h48.1C680.94,196.1,695.87,179.23,695.87,148.27Zm-63,20.18V30.23H650c9.67,0,15.48,5,15.48,18.79V149.65c0,13.83-5.81,18.8-15.48,18.8Z"/><path class="cls-1" d="M782.69,196.1h30.68l-31-193.52H737.9l-31,193.52h27.93L740.11,161h37.32ZM744,134.72l14.65-97.86,14.65,97.86Z"/><path class="cls-1" d="M155.91,244.86c-29.85,0-46.16,17.69-46.16,48.65V394.14c0,31,16.31,48.66,46.16,48.66s46.17-17.69,46.17-48.66V293.51C202.08,262.55,185.77,244.86,155.91,244.86Zm15.76,151.22c0,13.82-6.08,19.08-15.76,19.08s-15.75-5.26-15.75-19.08V291.58c0-13.82,6.08-19.08,15.75-19.08s15.76,5.26,15.76,19.08Z"/><path class="cls-1" d="M3,854v80.45H349.4V736.53H3V854Zm103.46,40.85H50.22V879.65a44.19,44.19,0,0,1,8-25.63c5.57-8.32,13.08-15.08,19.29-22.82,6.36-8,11.33-16.94,11.33-29.76,0-11.15-3.89-14.16-10.08-14.16s-10.09,3.37-10.09,12.21v13.28H50.22v-12c0-19.82,9.91-31.14,29-31.14s29,11.32,29,31.14a55.66,55.66,0,0,1-9.12,30.47c-5.61,8.9-12.82,16.13-18.73,22.82-6.16,7-10.9,13.39-10.9,20.5a14,14,0,0,0,.17,2.66h36.81Zm71.32-29.73c0,19.82-10.45,31.15-29.56,31.15S118.7,885,118.7,865.14V800.73c0-19.82,10.45-31.14,29.55-31.14,11.65,0,20.05,4.22,24.86,12,3.08,5,4.7,11.41,4.7,19.15v64.41Zm32,12h36.81v17.69H190.38V879.65c0-36.45,38.57-42.47,38.57-78.21,0-11.15-3.89-14.16-10.08-14.16s-10.09,3.37-10.09,12.21v13.28h-18.4v-12c0-.91,0-1.79.08-2.67.54-11.21,4.5-19.43,11.75-24.07,4.48-2.88,10.21-4.4,17.18-4.4,19.11,0,29,11.32,29,31.14,0,38.93-38.76,53.44-38.76,73.79A13.23,13.23,0,0,0,209.84,877.18Zm90.07,17.69H280.45V800.38h-15v-13.8c15,0,18.4-7.26,21.41-15.57h13.09Z"/><path class="cls-1" d="M148.25,787.28c-6.19,0-10.08,3.37-10.08,12.21v66.89c0,8.85,3.89,12.21,10.08,12.21s10.09-3.36,10.09-12.21V799.49C158.34,790.65,154.45,787.28,148.25,787.28Z"/></svg>